<?xml version="1.0" standalone="no"?>
<!DOCTYPE svg PUBLIC "-//W3C//DTD SVG 20010904//EN"
 "http://www.w3.org/TR/2001/REC-SVG-20010904/DTD/svg10.dtd">
<svg version="1.0" xmlns="http://www.w3.org/2000/svg"
 width="700.000000pt" height="700.000000pt" viewBox="0 0 700.000000 700.000000"
 preserveAspectRatio="xMidYMid meet">
<metadata>
Created by potrace 1.14, written by Peter Selinger 2001-2017
</metadata>
<g transform="translate(0.000000,700.000000) scale(0.100000,-0.100000)"
fill="#000000" stroke="none">
<path d="M2556 6198 c-30 -26 -32 -45 -22 -208 2 -25 7 -101 11 -170 4 -69 9
-128 11 -132 2 -3 -132 -144 -299 -312 -167 -168 -333 -338 -369 -378 -110
-123 -132 -145 -361 -382 -312 -322 -304 -314 -387 -406 -41 -46 -80 -88 -85
-94 -29 -30 -145 -187 -173 -233 -44 -73 -66 -145 -60 -198 12 -99 247 -412
408 -541 151 -120 311 -188 467 -198 112 -7 135 4 249 113 234 226 363 288
749 361 139 26 155 30 195 40 19 5 49 12 65 14 53 10 247 73 354 115 57 23
106 39 109 36 8 -8 -38 -118 -74 -175 -75 -120 -202 -227 -509 -435 -231 -156
-248 -168 -380 -278 -250 -209 -419 -447 -514 -725 -36 -103 -36 -103 -52
-181 -11 -49 -16 -56 -66 -88 -126 -80 -218 -212 -269 -382 -39 -135 -59 -374
-43 -541 5 -63 10 -77 33 -97 l27 -23 1930 0 1931 0 29 29 c32 32 31 24 32
241 0 97 -8 211 -18 265 -47 237 -126 382 -270 491 l-28 22 17 128 c10 71 20
138 22 149 6 29 10 54 39 225 14 85 28 169 31 185 3 17 14 89 25 160 11 72 22
141 24 155 5 31 12 89 20 155 5 48 8 71 20 200 4 33 8 161 10 285 3 215 -8
388 -34 538 -6 31 -13 73 -16 92 -18 105 -84 310 -142 443 -183 415 -507 763
-959 1025 -177 103 -501 248 -684 307 -31 10 -73 34 -95 54 -100 91 -242 186
-366 245 -81 38 -232 91 -288 101 -19 3 -37 8 -41 10 -3 2 -45 7 -91 11 -81 6
-87 5 -113 -18z"/>
</g>
</svg>
